<?xml version="1.0" encoding="utf-8"?>
<svg xmlns="http://www.w3.org/2000/svg" viewBox="0 0 512 512" width="512" height="512">
  <defs>
    <radialGradient id="orb-fill" cx="38%" cy="30%" r="75%">
      <stop offset="0" stop-color="#3a3136"/>
      <stop offset="0.35" stop-color="#241c22"/>
      <stop offset="0.72" stop-color="#161118"/>
      <stop offset="1" stop-color="#0d0a0f"/>
    </radialGradient>
    <linearGradient id="metal-orange" x1="0%" y1="0%" x2="100%" y2="100%">
      <stop offset="0" stop-color="#ffb15a"/>
      <stop offset="0.45" stop-color="#d96a1a"/>
      <stop offset="1" stop-color="#7e3500"/>
    </linearGradient>
    <linearGradient id="rim-stroke" x1="0%" y1="0%" x2="0%" y2="100%">
      <stop offset="0" stop-color="#ffcf8a"/>
      <stop offset="0.3" stop-color="#c66a1e"/>
      <stop offset="1" stop-color="#5a2400"/>
    </linearGradient>
    <filter id="soft-shadow" x="-20%" y="-20%" width="140%" height="140%">
      <feGaussianBlur in="SourceAlpha" stdDeviation="4" result="blur"/>
      <feOffset dx="0" dy="2" result="offset"/>
      <feComponentTransfer>
        <feFuncA type="linear" slope="0.35"/>
      </feComponentTransfer>
      <feMerge>
        <feMergeNode in="offset"/>
        <feMergeNode in="SourceGraphic"/>
      </feMerge>
    </filter>
    <clipPath id="orb-clip">
      <circle cx="256" cy="256" r="198"/>
    </clipPath>
  </defs>
  <circle cx="256" cy="256" r="198" fill="url(#orb-fill)" stroke="url(#rim-stroke)" stroke-width="3" filter="url(#soft-shadow)"/>
  <g clip-path="url(#orb-clip)">
    <ellipse cx="220" cy="170" rx="140" ry="95" fill="#ffffff" opacity="0.05"/>
    <ellipse cx="310" cy="330" rx="150" ry="110" fill="#000000" opacity="0.10"/>
    <path d="M108 165 A170 170 0 0 1 403 165" fill="none" stroke="#ff9a3c" stroke-width="1.5" opacity="0.22"/>
    <g fill="#ff9a3c" opacity="0.22">
      <circle cx="148" cy="186" r="1"/>
      <circle cx="182" cy="217" r="0.9"/>
      <circle cx="232" cy="178" r="0.8"/>
      <circle cx="318" cy="192" r="1"/>
      <circle cx="355" cy="226" r="0.9"/>
      <circle cx="146" cy="308" r="0.8"/>
      <circle cx="214" cy="336" r="1"/>
      <circle cx="284" cy="344" r="0.9"/>
      <circle cx="344" cy="317" r="0.8"/>
    </g>
  </g>
  <path d="M 182 148.322 C 182 130.386 190.968 125.364 208.904 133.256 L 364.946 207.511 C 383.599 216.837 383.599 226.164 364.946 235.491 L 208.904 309.745 C 190.968 317.637 182 312.615 182 294.679 L 182 148.322 Z" fill="url(#metal-orange)" style=""/>
  <path d="M 46 309 L 66 319 C 184 370 328 370 446 319 L 466 309 L 456 326 C 329 380 183 380 56 326 Z" fill="url(#metal-orange)"/>
  <path d="M 64 353 L 83 362 C 193 409 319 409 429 362 L 448 353 L 439 369 C 320 417 192 417 73 369 Z" fill="url(#metal-orange)"/>
</svg>