<?xml version="1.0" encoding="utf-8"?>
<svg xmlns="http://www.w3.org/2000/svg" viewBox="0 0 512 512" width="512" height="512">
  <path d="M 182 148.322 C 182 130.386 190.968 125.364 208.904 133.256 L 364.946 207.511 C 383.599 216.837 383.599 226.164 364.946 235.491 L 208.904 309.745 C 190.968 317.637 182 312.615 182 294.679 L 182 148.322 Z" style=""/>
  <path d="M 46 309 L 66 319 C 184 370 328 370 446 319 L 466 309 L 456 326 C 329 380 183 380 56 326 Z" style=""/>
  <path d="M 64 353 L 83 362 C 193 409 319 409 429 362 L 448 353 L 439 369 C 320 417 192 417 73 369 Z" style=""/>
</svg>